# xmcd
#
# Track frame offsets:
#	180
#	10572
#	22910
#	34998
#	47485
#	56327
#	67128
#	78340
#	88726
#	99170
#	108773
#	118587
#	128980
#	139589
#	148021
#	159751
#	171725
#	184186
#	191682
#	203173
#	214961
#	224002
#	237860
#	249182
#	257702
#	269095
#	278919
#	290015
#	301150
#	310343
#
# Disc length: 4313 seconds
#
# Revision: 2
# Processed by: cddbd v1.5.1PL0 Copyright (c) Steve Scherf et al.
# Submitted via: audiograbber 1.83.01
#
DISCID=b810d71e
DTITLE=Bob Luman - Can't take the country from the boy
DYEAR=1900
DGENRE=Country
TTITLE0=You're everything
TTITLE1=Belonging to you
TTITLE2=The fool
TTITLE3=Big River Rose
TTITLE4=I'm gonna write a song about you
TTITLE5=Interstate Forty
TTITLE6=You're welcome
TTITLE7=Can't take the country from the boy
TTITLE8=I like your kind of love (with Sue Thompson)
TTITLE9=Too hot to dance (with Sue Thompson)
TTITLE10=Fire engine red
TTITLE11=The file
TTITLE12=A lonely room
TTITLE13=Go on home boy
TTITLE14=Love worked a miracle
TTITLE15=Five miles from home
TTITLE16=I get so sentimental
TTITLE17=Come on and sing
TTITLE18=It's a sin
TTITLE19=Poor boy blues
TTITLE20=Freedom of living
TTITLE21=Hardly anywhere
TTITLE22=If you don't love me
TTITLE23=I ain't got time to be unhappy
TTITLE24=Sally was a good ole girl
TTITLE25=I like trains
TTITLE26=Come on home and sing the blues to daddy
TTITLE27=It's all over
TTITLE28=Everyday I have to cry some
TTITLE29=The gun
EXTD=
EXTT0=
EXTT1=
EXTT2=
EXTT3=
EXTT4=
EXTT5=
EXTT6=
EXTT7=
EXTT8=
EXTT9=
EXTT10=
EXTT11=
EXTT12=
EXTT13=
EXTT14=
EXTT15=
EXTT16=
EXTT17=
EXTT18=
EXTT19=
EXTT20=
EXTT21=
EXTT22=
EXTT23=
EXTT24=
EXTT25=
EXTT26=
EXTT27=
EXTT28=
EXTT29=
PLAYORDER=
